<svg width="34" height="33" viewBox="0 0 34 33" fill="none" xmlns="http://www.w3.org/2000/svg">
<path d="M32.6892 29.1157V23.6148C33.0579 23.4874 33.368 23.2406 33.565 22.9176C33.7621 22.5946 33.8336 22.2159 33.7672 21.8477C33.7008 21.4795 33.5006 21.1453 33.2016 20.9034C32.9026 20.6616 32.5239 20.5275 32.1316 20.5246H21.9052C24.1833 19.4825 26.0222 17.7345 27.1204 15.5669C28.2187 13.3993 28.5112 10.9408 27.95 8.59426C27.3888 6.24768 26.0072 4.15221 24.0317 2.65122C22.0561 1.15024 19.6037 0.332764 17.0764 0.332764C14.5491 0.332764 12.0967 1.15024 10.1211 2.65122C8.14559 4.15221 6.76402 6.24768 6.20284 8.59426C5.64167 10.9408 5.93417 13.3993 7.03241 15.5669C8.13065 17.7345 9.9695 19.4825 12.2476 20.5246H6.48205C5.63935 20.5241 4.80558 20.689 4.03285 21.0092C3.26012 21.3294 2.56502 21.7978 1.99097 22.3853C1.41693 22.9728 0.976282 23.6667 0.696552 24.4237C0.416823 25.1806 0.304024 25.9844 0.365203 26.7848C0.50324 28.2769 1.22785 29.6643 2.39405 30.6695C3.56025 31.6746 5.08203 32.2234 6.65491 32.206H32.1316C32.5239 32.2031 32.9026 32.069 33.2016 31.8271C33.5006 31.5853 33.7008 31.2511 33.7672 30.8829C33.8336 30.5147 33.7621 30.136 33.565 29.813C33.368 29.49 33.0579 29.2432 32.6892 29.1157ZM19.5745 20.2113C20.3033 19.2824 20.8493 18.2354 21.1859 17.121C21.9673 17.4567 22.7001 17.8867 23.3661 18.4007C22.2526 19.2552 20.9597 19.8726 19.5745 20.2113ZM20.9684 11.498C20.9294 12.9154 20.7445 14.3257 20.4164 15.7086C18.2434 15.0502 15.9094 15.0502 13.7364 15.7086C13.408 14.3257 13.2231 12.9154 13.1844 11.498H20.9684ZM13.1844 10.4361C13.2231 9.0187 13.408 7.60838 13.7364 6.22545C14.817 6.55028 15.9432 6.71678 17.0764 6.71925C18.2096 6.71678 19.3358 6.55028 20.4164 6.22545C20.7445 7.60844 20.9294 9.01873 20.9684 10.4361H13.1844ZM17.0764 16.2768C18.1139 16.2791 19.1448 16.4349 20.1321 16.7387C19.4406 18.9317 18.37 20.5246 17.0764 20.5246C15.7828 20.5246 14.7122 18.9317 14.0208 16.7387C15.008 16.4349 16.0389 16.2791 17.0764 16.2768ZM24.2025 17.6892C23.3861 17.0332 22.4731 16.4947 21.4926 16.0909C21.8596 14.5842 22.0577 13.0446 22.0836 11.498H27.0853C26.9515 13.8279 25.9259 16.0304 24.2025 17.6892ZM27.0853 10.4361H22.0836C22.0577 8.8895 21.8596 7.34991 21.4926 5.84315C22.4731 5.43938 23.3861 4.90091 24.2025 4.24492C25.9259 5.90366 26.9515 8.10616 27.0853 10.4361ZM23.3661 3.53341C22.7001 4.04734 21.9673 4.47743 21.1859 4.81306C20.8493 3.69869 20.3033 2.65167 19.5745 1.72279C20.9597 2.06147 22.2526 2.67887 23.3661 3.53341ZM17.0764 1.40951C18.37 1.40951 19.4406 3.00244 20.1321 5.19536C19.1448 5.49919 18.1139 5.65503 17.0764 5.65731C16.0389 5.65503 15.008 5.49919 14.0208 5.19536C14.7122 3.00244 15.7828 1.40951 17.0764 1.40951ZM14.5784 1.72279C13.8495 2.65167 13.3035 3.69869 12.9669 4.81306C12.1855 4.47743 11.4527 4.04734 10.7867 3.53341C11.9003 2.67887 13.1932 2.06147 14.5784 1.72279ZM9.95031 4.24492C10.7667 4.90091 11.6798 5.43938 12.6602 5.84315C12.2932 7.34991 12.0951 8.8895 12.0692 10.4361H7.06753C7.20134 8.10616 8.22689 5.90366 9.95031 4.24492ZM7.06753 11.498H12.0692C12.0951 13.0446 12.2932 14.5842 12.6602 16.0909C11.6798 16.4947 10.7667 17.0332 9.95031 17.6892C8.22689 16.0304 7.20134 13.8279 7.06753 11.498ZM10.7867 18.4007C11.4527 17.8867 12.1855 17.4567 12.9669 17.121C13.3035 18.2354 13.8495 19.2824 14.5784 20.2113C13.1932 19.8726 11.9003 19.2552 10.7867 18.4007ZM32.1316 31.1441H6.65491C5.36403 31.1613 4.11377 30.7145 3.1536 29.8927C2.19344 29.0709 1.59397 27.9345 1.47482 26.7104C1.42643 26.0556 1.51995 25.3984 1.74956 24.7795C1.97918 24.1606 2.33998 23.5932 2.80957 23.1127C3.27915 22.6322 3.84748 22.2487 4.47925 21.9862C5.11103 21.7236 5.79274 21.5876 6.48205 21.5865H32.1316C32.2794 21.5865 32.4213 21.6425 32.5258 21.742C32.6304 21.8416 32.6892 21.9767 32.6892 22.1175C32.6892 22.2583 32.6304 22.3934 32.5258 22.493C32.4213 22.5925 32.2794 22.6485 32.1316 22.6485H6.48205C5.46492 22.651 4.48873 23.0303 3.7602 23.7063C3.03166 24.3822 2.60798 25.3015 2.57887 26.2697C2.56916 26.7563 2.6624 27.2398 2.85304 27.6913C3.04367 28.1429 3.3278 28.5533 3.68849 28.898C4.07021 29.2711 4.52619 29.568 5.02978 29.7713C5.53338 29.9746 6.07448 30.0802 6.62145 30.0821H32.1316C32.2794 30.0821 32.4213 30.1381 32.5258 30.2376C32.6304 30.3372 32.6892 30.4723 32.6892 30.6131C32.6892 30.7539 32.6304 30.889 32.5258 30.9885C32.4213 31.0881 32.2794 31.1441 32.1316 31.1441ZM31.574 23.7104V29.0202H6.62145C6.22294 29.0183 5.82882 28.9408 5.46214 28.7922C5.09545 28.6436 4.76356 28.4268 4.48585 28.1547C4.22917 27.9117 4.02672 27.6218 3.89065 27.3025C3.75459 26.9831 3.68772 26.6409 3.69406 26.2963C3.71297 25.6042 4.01502 24.9465 4.53584 24.4635C5.05665 23.9804 5.75502 23.7102 6.48205 23.7104H31.574Z" fill="black"/>
<path d="M29.3436 25.8343H5.92445V26.8962H29.3436V25.8343Z" fill="black"/>
</svg>
