<svg width="32" height="35" viewBox="0 0 32 35" fill="none" xmlns="http://www.w3.org/2000/svg">
<path d="M9.75723 15.9371C9.19407 15.9973 8.65615 16.1925 8.19378 16.5046C7.73141 16.8166 7.3597 17.2352 7.11342 17.7212C7.05883 17.8413 7.05581 17.9769 7.105 18.0991C7.1542 18.2212 7.25169 18.3201 7.37659 18.3747C7.50148 18.4292 7.64384 18.4349 7.77313 18.3907C7.90242 18.3464 8.00836 18.2557 8.06823 18.1379C8.23575 17.8122 8.48595 17.5314 8.79617 17.321C9.1064 17.1106 9.46685 16.9772 9.84488 16.9329C9.98149 16.9192 10.107 16.8551 10.1946 16.7543C10.2822 16.6535 10.3248 16.5241 10.3133 16.3937C10.3019 16.2633 10.2372 16.1424 10.1333 16.0569C10.0293 15.9714 9.89434 15.9281 9.75723 15.9362V15.9371Z" fill="black"/>
<path d="M30.9926 31.1883L26.782 17.7186C26.5174 16.86 26.015 16.0849 25.3277 15.4748C24.6403 14.8646 23.7931 14.4418 22.8751 14.2507L19.9636 7.01638C20.1689 6.65245 20.2259 6.22911 20.1235 5.82762C20.0686 5.65149 19.9777 5.48741 19.8562 5.34474C19.7346 5.20207 19.5847 5.08361 19.415 4.99615C19.2453 4.90868 19.0592 4.85392 18.8673 4.83499C18.6753 4.81606 18.4814 4.83333 18.2965 4.88582L16.3965 5.42432C16.204 5.47987 16.0257 5.57249 15.8724 5.69643C15.7187 5.57265 15.5399 5.48032 15.3471 5.42518L13.4477 4.88725C13.2628 4.83471 13.0688 4.81738 12.8768 4.83627C12.6849 4.85516 12.4987 4.90989 12.329 4.99733C12.1592 5.08476 12.0092 5.2032 11.8876 5.34586C11.766 5.48853 11.675 5.65262 11.62 5.82876C11.5179 6.23029 11.575 6.65359 11.7803 7.01752L8.86966 14.2507C7.95162 14.4418 7.1045 14.8646 6.41711 15.4748C5.72972 16.0849 5.22739 16.86 4.96278 17.7186L0.751842 31.1883C0.71222 31.3154 0.727198 31.4524 0.793489 31.569C0.85978 31.6857 0.971967 31.7725 1.10543 31.8105L10.2165 34.3932C10.2652 34.4069 10.3158 34.4138 10.3666 34.4138C10.4797 34.4138 10.5899 34.379 10.6806 34.3146C10.7713 34.2502 10.8377 34.1596 10.8699 34.0563L12.1573 29.9386L14.3209 23.0179V23.0162L15.08 20.5866C15.3513 19.7304 15.3757 18.8204 15.1507 17.9521C14.9258 17.0838 14.4597 16.2891 13.8013 15.6512L15.5194 8.0768C15.645 8.006 15.7632 7.92387 15.8724 7.83156C15.9815 7.92417 16.0997 8.00658 16.2254 8.07766L17.9435 15.6512C17.2847 16.2891 16.8183 17.084 16.5931 17.9526C16.368 18.8212 16.3924 19.7315 16.6639 20.588L17.423 23.0176V23.0193L19.5866 29.94L20.8736 34.0577C20.906 34.161 20.9724 34.2516 21.0632 34.316C21.1539 34.3804 21.2641 34.4152 21.3773 34.4152C21.4281 34.4153 21.4787 34.4083 21.5274 34.3947L30.6384 31.8119C30.7048 31.7933 30.7666 31.7623 30.8204 31.7208C30.8741 31.6793 30.9187 31.6281 30.9516 31.5702C30.9845 31.5122 31.0051 31.4487 31.0121 31.3831C31.0192 31.3176 31.0125 31.2513 30.9926 31.1883ZM11.3001 29.1735L3.19574 26.8763L5.05973 20.913L13.164 23.2105L11.3001 29.1735ZM10.0127 33.2917L1.90836 30.9942L2.89618 27.8352L11.0005 30.1327L10.0127 33.2917ZM15.3294 6.88118C15.273 7.06183 14.9869 7.22818 14.8602 7.27905C14.781 7.30971 14.7109 7.35833 14.6559 7.4207C14.6009 7.48307 14.5628 7.5573 14.5448 7.63691L12.7138 15.711C12.6945 15.7961 12.6988 15.8845 12.7263 15.9675C12.7539 16.0505 12.8037 16.1252 12.8708 16.1843C13.4594 16.6919 13.8849 17.348 14.0978 18.0765C14.3107 18.805 14.3023 19.5761 14.0735 20.3002L13.4636 22.2507L5.35929 19.9532L5.96922 18.0027C6.1935 17.2771 6.62932 16.627 7.22608 16.1278C7.82284 15.6286 8.55606 15.3008 9.34061 15.1825C9.43113 15.1684 9.51619 15.1319 9.58729 15.0768C9.65839 15.0216 9.71306 14.9496 9.74582 14.8681L12.8495 7.15415C12.8792 7.07859 12.8896 6.99737 12.8797 6.91723C12.8699 6.83709 12.84 6.76035 12.7927 6.69339C12.6668 6.52496 12.6078 6.31945 12.6262 6.11345C12.6418 6.06319 12.6677 6.01635 12.7023 5.97563C12.737 5.93491 12.7797 5.9011 12.8281 5.87614C12.8765 5.85118 12.9297 5.83556 12.9844 5.83018C13.0392 5.8248 13.0945 5.82976 13.1472 5.84477L15.0466 6.38298C15.1534 6.41329 15.2431 6.48269 15.2961 6.57594C15.3491 6.66919 15.3611 6.77867 15.3294 6.88032V6.88118ZM18.5804 23.2105L26.6847 20.913L28.5487 26.8763L20.4444 29.1735L18.5804 23.2105ZM18.874 16.1843C18.9416 16.1254 18.9919 16.0506 19.0197 15.9674C19.0476 15.8842 19.0521 15.7955 19.0328 15.7101L17.2018 7.63605C17.1838 7.55644 17.1457 7.48222 17.0907 7.41985C17.0357 7.35748 16.9655 7.30885 16.8863 7.2782C16.7816 7.23761 16.4757 7.06811 16.4172 6.88004C16.386 6.77873 16.3981 6.66979 16.4509 6.57696C16.5037 6.48412 16.5929 6.41492 16.699 6.38441L18.599 5.84563C18.6517 5.8307 18.707 5.82581 18.7617 5.83123C18.8164 5.83666 18.8694 5.8523 18.9177 5.87725C18.9661 5.9022 19.0088 5.93598 19.0434 5.97666C19.078 6.01733 19.1039 6.06411 19.1195 6.11431C19.1381 6.31919 19.0799 6.52372 18.9553 6.69168C18.9065 6.75847 18.8754 6.83561 18.865 6.9164C18.8545 6.99719 18.8649 7.0792 18.8953 7.15529L21.9989 14.8692C22.0317 14.9508 22.0863 15.0228 22.1574 15.078C22.2285 15.1332 22.3136 15.1696 22.4042 15.1836C23.1887 15.3019 23.9219 15.6297 24.5187 16.1289C25.1154 16.6281 25.5513 17.2783 25.7755 18.0039L26.3852 19.9544L18.2809 22.2519L17.6709 20.3014C17.442 19.577 17.4335 18.8057 17.6465 18.077C17.8594 17.3482 18.285 16.6919 18.874 16.1843ZM21.7324 33.2917L20.7449 30.1327L28.8492 27.8352L29.8367 30.9942L21.7324 33.2917Z" fill="black"/>
<path d="M19.046 19.8732C19.0722 19.8732 19.0984 19.8714 19.1243 19.8678C19.1925 19.8581 19.2581 19.8357 19.3172 19.8019C19.3764 19.7681 19.4279 19.7235 19.469 19.6707C19.51 19.6179 19.5397 19.5579 19.5564 19.4942C19.573 19.4305 19.5764 19.3642 19.5662 19.2993C19.5196 18.9423 19.5673 18.5799 19.7051 18.2449C19.8428 17.9099 20.0662 17.613 20.355 17.3811C20.4649 17.2995 20.5362 17.1797 20.5534 17.048C20.5705 16.9164 20.532 16.7836 20.4464 16.6789C20.3607 16.5743 20.2349 16.5063 20.0966 16.49C19.9584 16.4737 19.8189 16.5103 19.709 16.5919C19.2746 16.9339 18.9383 17.3751 18.7316 17.8744C18.5249 18.3737 18.4545 18.9148 18.527 19.447C18.5457 19.5654 18.6083 19.6736 18.7035 19.7517C18.7987 19.8299 18.9202 19.873 19.046 19.8732Z" fill="black"/>
<path d="M15.8724 4.28279C16.0117 4.28279 16.1453 4.23009 16.2438 4.13629C16.3423 4.04248 16.3977 3.91525 16.3977 3.78259V0.933155C16.3977 0.800493 16.3423 0.673265 16.2438 0.579459C16.1453 0.485652 16.0117 0.432953 15.8724 0.432953C15.7331 0.432953 15.5995 0.485652 15.5009 0.579459C15.4024 0.673265 15.3471 0.800493 15.3471 0.933155V3.78259C15.3471 3.91525 15.4024 4.04248 15.5009 4.13629C15.5995 4.23009 15.7331 4.28279 15.8724 4.28279Z" fill="black"/>
<path d="M17.2342 4.23619C17.3036 4.26741 17.3795 4.28352 17.4563 4.28335C17.5562 4.28341 17.6541 4.25634 17.7384 4.20531C17.8227 4.15428 17.89 4.0814 17.9324 3.99524C17.9393 3.98124 18.6314 2.60099 20.1016 2.17454C20.1676 2.15541 20.229 2.1241 20.2823 2.08239C20.3355 2.04067 20.3797 1.98937 20.4121 1.93142C20.4446 1.87347 20.4647 1.80999 20.4714 1.74463C20.4781 1.67926 20.4712 1.61327 20.4512 1.55044C20.4311 1.4876 20.3982 1.42915 20.3544 1.37842C20.3106 1.32769 20.2567 1.28567 20.1959 1.25476C20.135 1.22385 20.0683 1.20466 19.9997 1.19829C19.931 1.19191 19.8617 1.19847 19.7958 1.21759C17.8828 1.77181 17.0166 3.49791 16.9806 3.57108C16.9513 3.6306 16.9346 3.69503 16.9315 3.76069C16.9284 3.82635 16.939 3.89194 16.9625 3.95372C16.9861 4.0155 17.0222 4.07224 17.0688 4.12071C17.1154 4.16918 17.1716 4.20842 17.2342 4.23619Z" fill="black"/>
<path d="M11.6431 2.17445C13.0962 2.59605 13.8025 3.97516 13.813 3.99631C13.8556 4.08198 13.9229 4.15434 14.0071 4.20495C14.0913 4.25555 14.1889 4.28232 14.2884 4.28214C14.3652 4.2823 14.4411 4.26619 14.5105 4.23497C14.5731 4.20721 14.6292 4.16798 14.6758 4.11953C14.7224 4.07108 14.7585 4.01436 14.7821 3.95262C14.8056 3.89087 14.8162 3.82531 14.8131 3.75968C14.81 3.69406 14.7934 3.62965 14.7642 3.57014C14.7279 3.49811 13.8613 1.77201 11.949 1.21751C11.8158 1.17889 11.6719 1.19224 11.549 1.25463C11.4261 1.31703 11.3343 1.42335 11.2937 1.55021C11.2532 1.67707 11.2672 1.81408 11.3327 1.93109C11.3982 2.04811 11.5099 2.13555 11.6431 2.17417V2.17445Z" fill="black"/>
</svg>
