<svg width="29" height="29" viewBox="0 0 29 29" fill="none" xmlns="http://www.w3.org/2000/svg">
<g clip-path="url(#clip0)">
<path d="M22.8154 15.6324C22.6833 15.6324 22.5524 15.5876 22.4456 15.4969C22.2262 15.3131 17.0719 10.9158 17.0719 6.44269C17.0719 3.27567 19.6484 0.699097 22.8154 0.699097C25.9825 0.699097 28.559 3.27567 28.559 6.44269C28.559 10.9158 23.4047 15.3131 23.1853 15.4969C23.0785 15.5876 22.9475 15.6324 22.8154 15.6324ZM22.8154 1.84781C20.2814 1.84781 18.2206 3.90861 18.2206 6.44269C18.2206 9.73721 21.6633 13.2155 22.8154 14.2861C23.9676 13.2144 27.4103 9.73721 27.4103 6.44269C27.4103 3.90861 25.3495 1.84781 22.8154 1.84781Z" fill="black"/>
<path d="M22.8154 8.74013C21.5484 8.74013 20.518 7.70973 20.518 6.4427C20.518 5.17566 21.5484 4.14526 22.8154 4.14526C24.0825 4.14526 25.1129 5.17566 25.1129 6.4427C25.1129 7.70973 24.0825 8.74013 22.8154 8.74013ZM22.8154 5.29398C22.1825 5.29398 21.6667 5.80861 21.6667 6.4427C21.6667 7.07679 22.1825 7.59142 22.8154 7.59142C23.4484 7.59142 23.9642 7.07679 23.9642 6.4427C23.9642 5.80861 23.4484 5.29398 22.8154 5.29398Z" fill="black"/>
<path d="M4.43595 27.1196C4.3004 27.1196 4.1637 27.0714 4.05457 26.9749C3.93051 26.8646 0.989792 24.2306 0.989792 21.5196C0.989792 19.5404 2.53597 17.9299 4.43595 17.9299C6.33593 17.9299 7.8821 19.5404 7.8821 21.5196C7.8821 24.2306 4.94138 26.8646 4.81732 26.9749C4.70819 27.0714 4.57149 27.1196 4.43595 27.1196ZM4.43595 19.0786C3.16891 19.0786 2.13851 20.1733 2.13851 21.5196C2.13851 23.2002 3.69617 24.9899 4.43595 25.7457C5.17572 24.991 6.73338 23.2002 6.73338 21.5196C6.73338 20.1733 5.70298 19.0786 4.43595 19.0786Z" fill="black"/>
<path d="M19.2705 28.2683H4.43593C4.11889 28.2683 3.86157 28.011 3.86157 27.6939C3.86157 27.3769 4.11889 27.1196 4.43593 27.1196H19.2705C19.6358 27.1196 19.7725 26.8393 19.8058 26.7531C19.8391 26.667 19.9264 26.366 19.6564 26.1202L11.4178 18.6305C10.8871 18.1469 10.7114 17.4026 10.9698 16.734C11.2283 16.0643 11.8589 15.6324 12.5757 15.6324H22.8154C23.1325 15.6324 23.3898 15.8897 23.3898 16.2067C23.3898 16.5238 23.1325 16.7811 22.8154 16.7811H12.5757C12.2105 16.7811 12.0738 17.0614 12.0404 17.1475C12.0071 17.2337 11.9198 17.5347 12.1898 17.7805L20.4284 25.2701C20.9591 25.7537 21.1348 26.4981 20.8764 27.1667C20.6179 27.8364 19.9873 28.2683 19.2705 28.2683Z" fill="black"/>
<path d="M4.43596 22.5247C3.80302 22.5247 3.28725 22.0101 3.28725 21.376C3.28725 20.7419 3.80302 20.2273 4.43596 20.2273C5.06891 20.2273 5.58468 20.7419 5.58468 21.376C5.58468 22.0101 5.06891 22.5247 4.43596 22.5247ZM4.43596 21.3749C4.43596 21.3749 4.43596 21.376 4.43596 21.3749L5.01032 21.376L4.43596 21.3749Z" fill="black"/>
</g>
<defs>
<clipPath id="clip0">
<rect width="27.5692" height="27.5692" fill="white" transform="translate(0.989792 0.699097)"/>
</clipPath>
</defs>
</svg>
